<?xml version="1.0" encoding="UTF-8" standalone="no"?>
<!DOCTYPE svg PUBLIC "-//W3C//DTD SVG 1.1//EN"
 "http://www.w3.org/Graphics/SVG/1.1/DTD/svg11.dtd">
<!-- Generated by graphviz version 2.47.0 (20210316.0004)
 -->
<!-- Title: dependencies Pages: 1 -->
<svg width="1083pt" height="211pt"
 viewBox="0.00 0.00 1083.00 211.00" xmlns="http://www.w3.org/2000/svg" xmlns:xlink="http://www.w3.org/1999/xlink">
<g id="graph0" class="graph" transform="scale(1 1) rotate(0) translate(4 207)">
<title>dependencies</title>
<polygon fill="white" stroke="transparent" points="-4,4 -4,-207 1079,-207 1079,4 -4,4"/>
<text text-anchor="start" x="516.51" y="-42.4" font-family="Times-12" font-weight="bold" font-size="14.00">Legend</text>
<polygon fill="#ffffb3" stroke="transparent" points="303.5,-10 303.5,-30 323.5,-30 323.5,-10 303.5,-10"/>
<text text-anchor="start" x="327.13" y="-15.4" font-family="Times-12" font-size="14.00"> &#160;Declarations</text>
<polygon fill="#8dd3c7" stroke="transparent" points="416.5,-10 416.5,-30 436.5,-30 436.5,-10 416.5,-10"/>
<text text-anchor="start" x="440.23" y="-15.4" font-family="Times-12" font-size="14.00"> &#160;Module</text>
<polygon fill="#80b1d3" stroke="transparent" points="502.5,-10 502.5,-30 522.5,-30 522.5,-10 502.5,-10"/>
<text text-anchor="start" x="526.28" y="-15.4" font-family="Times-12" font-size="14.00"> &#160;Bootstrap</text>
<polygon fill="#fdb462" stroke="transparent" points="599.5,-10 599.5,-30 619.5,-30 619.5,-10 599.5,-10"/>
<text text-anchor="start" x="623.17" y="-15.4" font-family="Times-12" font-size="14.00"> &#160;Providers</text>
<polygon fill="#fb8072" stroke="transparent" points="695.5,-10 695.5,-30 715.5,-30 715.5,-10 695.5,-10"/>
<text text-anchor="start" x="719.23" y="-15.4" font-family="Times-12" font-size="14.00"> &#160;Exports</text>
<g id="clust1" class="cluster">
<title>cluster_AppModule</title>
<polygon fill="none" stroke="black" stroke-dasharray="1,5" points="8,-70 8,-195 1067,-195 1067,-70 8,-70"/>
</g>
<g id="clust3" class="cluster">
<title>cluster_AppModule_imports</title>
<polygon fill="none" stroke="black" points="16,-78 16,-130 1059,-130 1059,-78 16,-78"/>
</g>
<!-- AuthModule -->
<g id="node1" class="node">
<title>AuthModule</title>
<polygon fill="#8dd3c7" stroke="black" points="1050.55,-122 1047.55,-126 1026.55,-126 1023.55,-122 963.45,-122 963.45,-86 1050.55,-86 1050.55,-122"/>
<text text-anchor="middle" x="1007" y="-99.8" font-family="Times,serif" font-size="14.00">AuthModule</text>
</g>
<!-- AppModule -->
<g id="node9" class="node">
<title>AppModule</title>
<polygon fill="#8dd3c7" stroke="black" points="589.66,-187 586.66,-191 565.66,-191 562.66,-187 506.34,-187 506.34,-151 589.66,-151 589.66,-187"/>
<text text-anchor="middle" x="548" y="-164.8" font-family="Times,serif" font-size="14.00">AppModule</text>
</g>
<!-- AuthModule&#45;&gt;AppModule -->
<g id="edge1" class="edge">
<title>AuthModule&#45;&gt;AppModule</title>
<path fill="none" stroke="black" d="M1007,-122.29C1007,-144.21 1007,-178 1007,-178 1007,-178 599.95,-178 599.95,-178"/>
<polygon fill="black" stroke="black" points="599.95,-174.5 589.95,-178 599.95,-181.5 599.95,-174.5"/>
</g>
<!-- CategoriaModule -->
<g id="node2" class="node">
<title>CategoriaModule</title>
<polygon fill="#8dd3c7" stroke="black" points="944.97,-122 941.97,-126 920.97,-126 917.97,-122 831.03,-122 831.03,-86 944.97,-86 944.97,-122"/>
<text text-anchor="middle" x="888" y="-99.8" font-family="Times,serif" font-size="14.00">CategoriaModule</text>
</g>
<!-- CategoriaModule&#45;&gt;AppModule -->
<g id="edge2" class="edge">
<title>CategoriaModule&#45;&gt;AppModule</title>
<path fill="none" stroke="black" d="M888,-122.11C888,-141.34 888,-169 888,-169 888,-169 599.69,-169 599.69,-169"/>
<polygon fill="black" stroke="black" points="599.69,-165.5 589.69,-169 599.69,-172.5 599.69,-165.5"/>
</g>
<!-- FacturacionModule -->
<g id="node3" class="node">
<title>FacturacionModule</title>
<polygon fill="#8dd3c7" stroke="black" points="812.63,-122 809.63,-126 788.63,-126 785.63,-122 687.37,-122 687.37,-86 812.63,-86 812.63,-122"/>
<text text-anchor="middle" x="750" y="-99.8" font-family="Times,serif" font-size="14.00">FacturacionModule</text>
</g>
<!-- FacturacionModule&#45;&gt;AppModule -->
<g id="edge3" class="edge">
<title>FacturacionModule&#45;&gt;AppModule</title>
<path fill="none" stroke="black" d="M750,-122.03C750,-138.4 750,-160 750,-160 750,-160 599.85,-160 599.85,-160"/>
<polygon fill="black" stroke="black" points="599.85,-156.5 589.85,-160 599.85,-163.5 599.85,-156.5"/>
</g>
<!-- ProductoModule -->
<g id="node4" class="node">
<title>ProductoModule</title>
<polygon fill="#8dd3c7" stroke="black" points="669.1,-122 666.1,-126 645.1,-126 642.1,-122 558.9,-122 558.9,-86 669.1,-86 669.1,-122"/>
<text text-anchor="middle" x="614" y="-99.8" font-family="Times,serif" font-size="14.00">ProductoModule</text>
</g>
<!-- ProductoModule&#45;&gt;AppModule -->
<g id="edge4" class="edge">
<title>ProductoModule&#45;&gt;AppModule</title>
<path fill="none" stroke="black" d="M574.39,-122.11C574.39,-122.11 574.39,-140.99 574.39,-140.99"/>
<polygon fill="black" stroke="black" points="570.89,-140.99 574.39,-150.99 577.89,-140.99 570.89,-140.99"/>
</g>
<!-- ProveedorModule -->
<g id="node5" class="node">
<title>ProveedorModule</title>
<polygon fill="#8dd3c7" stroke="black" points="540.58,-122 537.58,-126 516.58,-126 513.58,-122 423.42,-122 423.42,-86 540.58,-86 540.58,-122"/>
<text text-anchor="middle" x="482" y="-99.8" font-family="Times,serif" font-size="14.00">ProveedorModule</text>
</g>
<!-- ProveedorModule&#45;&gt;AppModule -->
<g id="edge5" class="edge">
<title>ProveedorModule&#45;&gt;AppModule</title>
<path fill="none" stroke="black" d="M523.36,-122.11C523.36,-122.11 523.36,-140.99 523.36,-140.99"/>
<polygon fill="black" stroke="black" points="519.86,-140.99 523.36,-150.99 526.86,-140.99 519.86,-140.99"/>
</g>
<!-- UsuarioModule -->
<g id="node6" class="node">
<title>UsuarioModule</title>
<polygon fill="#8dd3c7" stroke="black" points="405.87,-122 402.87,-126 381.87,-126 378.87,-122 302.13,-122 302.13,-86 405.87,-86 405.87,-122"/>
<text text-anchor="middle" x="354" y="-99.8" font-family="Times,serif" font-size="14.00">UsuarioModule</text>
</g>
<!-- UsuarioModule&#45;&gt;AppModule -->
<g id="edge6" class="edge">
<title>UsuarioModule&#45;&gt;AppModule</title>
<path fill="none" stroke="black" d="M354,-122.03C354,-138.4 354,-160 354,-160 354,-160 495.9,-160 495.9,-160"/>
<polygon fill="black" stroke="black" points="495.9,-163.5 505.9,-160 495.9,-156.5 495.9,-163.5"/>
</g>
<!-- VentaProductoModule -->
<g id="node7" class="node">
<title>VentaProductoModule</title>
<polygon fill="#8dd3c7" stroke="black" points="283.53,-122 280.53,-126 259.53,-126 256.53,-122 140.47,-122 140.47,-86 283.53,-86 283.53,-122"/>
<text text-anchor="middle" x="212" y="-99.8" font-family="Times,serif" font-size="14.00">VentaProductoModule</text>
</g>
<!-- VentaProductoModule&#45;&gt;AppModule -->
<g id="edge7" class="edge">
<title>VentaProductoModule&#45;&gt;AppModule</title>
<path fill="none" stroke="black" d="M212,-122.11C212,-141.34 212,-169 212,-169 212,-169 496.12,-169 496.12,-169"/>
<polygon fill="black" stroke="black" points="496.12,-172.5 506.12,-169 496.12,-165.5 496.12,-172.5"/>
</g>
<!-- VentasModule -->
<g id="node8" class="node">
<title>VentasModule</title>
<polygon fill="#8dd3c7" stroke="black" points="122.42,-122 119.42,-126 98.42,-126 95.42,-122 23.58,-122 23.58,-86 122.42,-86 122.42,-122"/>
<text text-anchor="middle" x="73" y="-99.8" font-family="Times,serif" font-size="14.00">VentasModule</text>
</g>
<!-- VentasModule&#45;&gt;AppModule -->
<g id="edge8" class="edge">
<title>VentasModule&#45;&gt;AppModule</title>
<path fill="none" stroke="black" d="M73,-122.29C73,-144.21 73,-178 73,-178 73,-178 496.26,-178 496.26,-178"/>
<polygon fill="black" stroke="black" points="496.26,-181.5 506.26,-178 496.26,-174.5 496.26,-181.5"/>
</g>
</g>
</svg>
